<?xml version="1.0" standalone="no"?>
<!DOCTYPE svg PUBLIC "-//W3C//DTD SVG 20010904//EN"
 "http://www.w3.org/TR/2001/REC-SVG-20010904/DTD/svg10.dtd">
<svg version="1.0" xmlns="http://www.w3.org/2000/svg"
 width="224.000000pt" height="225.000000pt" viewBox="0 0 224.000000 225.000000"
 preserveAspectRatio="xMidYMid meet">

<g transform="translate(0.000000,225.000000) scale(0.100000,-0.100000)"
fill="#000000" stroke="none">
<path d="M1020 2243 c-253 -20 -508 -141 -693 -327 -417 -421 -436 -1088 -45
-1534 319 -363 845 -479 1289 -283 354 156 605 489 658 875 58 418 -135 849
-484 1081 -170 113 -335 170 -535 185 -69 5 -129 9 -135 8 -5 -1 -30 -3 -55
-5z m-145 -125 c-71 -50 -211 -206 -260 -289 l-50 -85 -155 -30 c-85 -17 -157
-29 -159 -28 -7 6 78 113 137 173 110 111 256 202 414 256 90 30 113 31 73 3z
m205 -158 l0 -180 -69 0 c-39 0 -127 -5 -196 -11 -69 -6 -130 -9 -136 -7 -26
9 119 189 209 261 49 39 173 115 190 117 1 0 2 -81 2 -180z m148 156 c113 -58
243 -174 318 -286 35 -51 41 -66 29 -68 -9 -2 -69 1 -135 7 -65 6 -153 11
-194 11 l-76 0 0 180 c0 99 2 180 5 180 3 0 27 -11 53 -24z m337 -55 c115 -55
242 -147 315 -229 57 -64 105 -130 99 -137 -3 -2 -47 4 -99 14 -52 10 -115 21
-141 25 -43 6 -47 10 -82 70 -52 91 -150 209 -221 268 -34 28 -65 54 -71 59
-20 19 104 -25 200 -70z m-485 -631 l0 -270 -281 0 -281 0 7 73 c16 176 68
401 100 427 15 12 254 37 373 39 l82 1 0 -270z m440 249 c58 -6 110 -16 117
-22 32 -33 90 -293 94 -427 l3 -65 -282 -3 -282 -2 0 271 0 272 123 -7 c67 -4
169 -11 227 -17z m-1000 -33 c0 -3 -13 -56 -29 -118 -16 -63 -35 -171 -42
-241 l-12 -127 -173 0 c-95 0 -175 4 -178 9 -9 15 22 193 48 276 44 138 40
134 207 171 143 32 179 38 179 30z m1311 -12 c211 -39 217 -41 237 -87 43 -97
72 -210 87 -335 l6 -52 -168 2 -168 3 -8 70 c-15 132 -36 250 -60 333 -13 45
-21 82 -17 82 4 0 45 -7 91 -16z m-1386 -636 c10 -120 31 -236 60 -325 13 -42
22 -79 20 -81 -2 -2 -78 10 -168 28 l-165 32 -31 79 c-34 85 -66 212 -75 297
l-5 52 178 0 179 0 7 -82z m635 -189 l0 -272 -127 8 c-71 3 -173 12 -228 18
l-100 12 -32 96 c-33 96 -56 216 -68 342 l-6 67 281 0 280 0 0 -271z m648 174
c-8 -116 -29 -219 -64 -326 -20 -60 -30 -78 -47 -82 -36 -8 -203 -23 -329 -31
l-118 -7 0 272 0 271 283 0 283 0 -8 -97z m426 45 c-14 -132 -82 -351 -115
-368 -20 -11 -297 -69 -302 -63 -3 2 6 36 18 76 25 79 55 240 55 296 0 20 3
53 6 74 l7 37 168 0 168 0 -5 -52z m-200 -520 c-74 -106 -213 -226 -347 -298
-59 -32 -196 -90 -212 -90 -2 0 37 42 88 93 61 62 112 127 151 190 33 53 62
97 65 98 3 0 67 13 141 28 74 15 137 26 139 24 2 -1 -9 -22 -25 -45z m-1535
16 c101 -17 149 -30 156 -41 116 -184 173 -254 260 -324 30 -24 53 -45 51 -46
-1 -2 -37 8 -80 22 -188 61 -366 182 -482 327 -57 71 -68 88 -58 88 4 0 73
-11 153 -26z m1160 -56 c-47 -91 -175 -231 -269 -295 -44 -30 -124 -73 -135
-73 -3 0 -4 80 -3 178 l3 177 134 7 c73 5 161 12 195 17 94 13 88 14 75 -11z
m-631 -5 l132 -6 0 -180 0 -179 -57 32 c-76 43 -151 100 -206 159 -53 57 -137
169 -137 184 0 6 23 8 68 3 37 -3 127 -9 200 -13z"/>
</g>
</svg>
